<?xml version="1.0" standalone="no"?>
<!DOCTYPE svg PUBLIC "-//W3C//DTD SVG 20010904//EN"
 "http://www.w3.org/TR/2001/REC-SVG-20010904/DTD/svg10.dtd">
<svg version="1.0" xmlns="http://www.w3.org/2000/svg"
 width="63.000000pt" height="60.000000pt" viewBox="0 0 63.000000 60.000000"
 preserveAspectRatio="xMidYMid meet">
<metadata>
Created by potrace 1.10, written by Peter Selinger 2001-2011
</metadata>
<g transform="translate(0.000000,60.000000) scale(0.100000,-0.100000)"
fill="#000000" stroke="none">
<path d="M267 563 c-13 -13 -7 -21 24 -32 24 -8 34 -8 44 2 11 11 10 16 -6 25
-21 13 -52 16 -62 5z"/>
<path d="M285 510 c-5 -8 -11 -53 -13 -101 -4 -74 -1 -93 19 -135 22 -48 23
-49 26 -19 13 97 43 147 107 176 41 19 41 19 10 19 -17 0 -51 -13 -77 -30
l-46 -29 -6 32 c-2 18 -6 48 -7 67 -2 26 -5 31 -13 20z"/>
<path d="M323 483 c-18 -7 -16 -42 3 -50 8 -3 23 1 31 10 13 13 14 19 3 31
-13 17 -17 18 -37 9z"/>
<path d="M117 316 c-5 -11 4 -17 31 -22 49 -9 134 -52 127 -64 -3 -6 -8 -10
-11 -10 -3 0 -3 4 0 8 2 4 -45 9 -106 11 -84 2 -109 -1 -106 -10 3 -9 37 -13
120 -13 84 -1 120 -5 132 -15 15 -13 19 -13 26 0 7 11 36 14 127 15 84 0 118
4 121 13 3 9 -22 12 -106 10 -67 -2 -108 -7 -105 -13 3 -5 1 -6 -5 -2 -7 4
-12 9 -12 11 0 8 66 39 117 54 38 12 50 20 44 29 -13 21 -110 -21 -156 -68
l-39 -40 -41 39 c-55 55 -148 94 -158 67z"/>
<path d="M80 276 c0 -12 10 -16 38 -16 20 0 57 -5 81 -11 63 -14 63 -3 0 15
-99 27 -119 29 -119 12z"/>
<path d="M473 275 c-34 -8 -70 -19 -80 -25 -16 -10 -15 -11 7 -6 14 4 53 9 87
13 38 3 64 11 67 19 6 17 0 16 -81 -1z"/>
<path d="M10 119 c0 -36 4 -48 18 -51 15 -4 17 2 14 47 -3 36 -8 52 -18 52
-10 0 -14 -13 -14 -48z"/>
<path d="M58 158 c16 -16 55 -21 50 -7 -2 7 -17 13 -32 15 -22 2 -26 0 -18 -8z"/>
<path d="M328 159 c-25 -14 -24 -75 1 -88 17 -10 18 -7 14 33 -6 48 8 66 34
44 14 -11 16 -11 11 2 -6 18 -37 23 -60 9z"/>
<path d="M407 163 c-4 -3 -7 -26 -7 -50 0 -32 4 -43 15 -43 11 0 15 12 15 50
0 46 -7 60 -23 43z"/>
<path d="M248 144 c-11 -10 -10 -72 0 -78 4 -2 14 -1 22 5 9 5 10 9 3 9 -6 0
-13 16 -15 36 -2 20 -6 32 -10 28z"/>
<path d="M143 132 c-18 -3 -23 -10 -23 -33 0 -19 5 -29 15 -29 9 0 15 10 15
26 l0 25 30 -18 c17 -9 30 -21 30 -25 0 -4 5 -8 10 -8 19 0 10 28 -15 44 -14
9 -25 13 -25 9 0 -5 -4 -3 -8 2 -4 6 -17 9 -29 7z"/>
<path d="M455 130 c-3 -5 -3 -14 0 -20 3 -5 1 -10 -5 -10 -6 0 -10 -8 -8 -17
5 -29 21 -15 24 22 2 36 0 42 -11 25z"/>
<path d="M482 105 c2 -22 8 -39 13 -37 12 4 7 53 -7 67 -6 7 -8 -4 -6 -30z"/>
<path d="M84 96 c0 -24 3 -33 13 -29 17 7 17 63 1 63 -8 0 -13 -14 -14 -34z"/>
<path d="M516 122 c-7 -12 33 -48 62 -55 l23 -5 -23 21 c-39 38 -56 48 -62 39z"/>
<path d="M570 122 c0 -14 46 -53 53 -45 4 3 -3 17 -15 30 -22 23 -38 30 -38
15z"/>
</g>
</svg>
