<svg width="383" height="443" viewBox="0 0 383 443" fill="none" xmlns="http://www.w3.org/2000/svg">
<path fill-rule="evenodd" clip-rule="evenodd" d="M345.115 72.8242C360.896 96.9714 384.735 118.213 382.9 147.004C380.658 182.197 368.716 227.437 334.678 236.611C300.322 245.872 279.655 197.024 246.648 183.731C217.965 172.179 179.998 188.839 159.208 165.943C135.524 139.857 128.014 99.2995 139.85 66.1084C151.535 33.3382 183.995 11.8336 217.495 2.4847C245.961 -5.45921 274.813 6.95481 300.697 21.2212C321.357 32.6084 332.207 53.0732 345.115 72.8242Z" fill="#800000"/>
<path d="M216.232 90.9318L220.047 67.2909L228.149 68.599C230.017 68.9006 231.508 69.4648 232.622 70.2914C233.739 71.0956 234.505 72.074 234.919 73.2267C235.334 74.3794 235.434 75.6199 235.219 76.9483C235.012 78.2317 234.531 79.3552 233.775 80.319C233.042 81.2863 232.015 81.9984 230.694 82.4551C229.377 82.8893 227.773 82.9538 225.882 82.6485L221.156 81.8854L219.609 91.4769L216.232 90.9318ZM221.608 79.0823L226.2 79.8236C227.933 80.1034 229.243 79.9223 230.132 79.2803C231.021 78.6384 231.569 77.6757 231.776 76.3923C231.994 75.0414 231.778 73.9439 231.129 73.0999C230.484 72.2334 229.295 71.6602 227.562 71.3804L222.97 70.6391L221.608 79.0823Z" fill="white"/>
<path d="M242.057 95.5171C240.729 95.3027 239.613 94.8454 238.71 94.1451C237.833 93.426 237.225 92.473 236.885 91.2862C236.546 90.0993 236.512 88.6616 236.784 86.973L238.343 77.3139L241.685 77.8536L240.181 87.1749C239.916 88.8185 240.054 90.1113 240.594 91.0534C241.158 91.9991 242.103 92.5791 243.431 92.7935C244.332 92.9389 245.176 92.8558 245.966 92.5443C246.758 92.2103 247.425 91.6595 247.964 90.8918C248.504 90.1241 248.87 89.1437 249.062 87.9504L250.463 79.2707L253.839 79.8158L251.136 96.5671L248.131 96.082L248.369 93.1056C247.662 94.0541 246.753 94.7505 245.642 95.1949C244.557 95.6205 243.362 95.7278 242.057 95.5171Z" fill="white"/>
<path d="M264.945 99.2124C264.044 99.0671 263.243 98.8106 262.54 98.443C261.837 98.0754 261.228 97.6305 260.712 97.1082C260.199 96.5635 259.803 95.945 259.522 95.2528L258.764 97.7988L255.726 97.3082L259.649 72.9918L263.025 73.5368L261.38 83.7362C262.047 83.0354 262.902 82.4574 263.946 82.0021C265.015 81.5279 266.304 81.4125 267.812 81.656C269.455 81.9213 270.822 82.5348 271.914 83.4965C273.028 84.4619 273.827 85.6651 274.311 87.1062C274.794 88.5472 274.9 90.112 274.627 91.8007C274.355 93.4893 273.763 94.9415 272.85 96.1573C271.942 97.3505 270.807 98.2299 269.446 98.7956C268.088 99.3387 266.588 99.4777 264.945 99.2124ZM264.879 96.187C265.936 96.3578 266.91 96.2609 267.801 95.8964C268.691 95.5319 269.43 94.9581 270.018 94.1752C270.632 93.3735 271.034 92.3872 271.223 91.2164C271.408 90.0681 271.335 89.0168 271.004 88.0624C270.696 87.1116 270.176 86.3231 269.446 85.697C268.716 85.0708 267.822 84.6724 266.764 84.5016C265.729 84.3344 264.755 84.4313 263.842 84.7922C262.952 85.1567 262.211 85.7417 261.619 86.5471C261.027 87.3525 260.639 88.3293 260.453 89.4776C260.268 90.6259 260.33 91.6754 260.638 92.6262C260.947 93.577 261.466 94.3654 262.196 94.9916C262.949 95.6213 263.843 96.0198 264.879 96.187Z" fill="white"/>
<path d="M277.222 100.779L281.145 76.4623L284.521 77.0074L280.598 101.324L277.222 100.779Z" fill="white"/>
<path d="M285.404 102.1L288.106 85.3484L291.482 85.8935L288.78 102.645L285.404 102.1ZM290.328 82.3112C289.675 82.2058 289.168 81.916 288.806 81.4417C288.466 80.971 288.347 80.4204 288.449 79.79C288.547 79.1821 288.829 78.7195 289.296 78.4021C289.789 78.0659 290.362 77.9505 291.015 78.0559C291.645 78.1576 292.141 78.4456 292.503 78.9199C292.869 79.3717 293.003 79.9016 292.905 80.5095C292.803 81.1399 292.506 81.6233 292.013 81.9595C291.52 82.2957 290.958 82.413 290.328 82.3112Z" fill="white"/>
<path d="M301.375 105.094C299.732 104.829 298.329 104.221 297.166 103.271C296.003 102.321 295.156 101.133 294.623 99.7072C294.095 98.2589 293.971 96.6679 294.25 94.9343C294.53 93.2006 295.147 91.7408 296.1 90.5548C297.057 89.3463 298.237 88.4741 299.64 87.9383C301.043 87.4024 302.565 87.2671 304.208 87.5324C306.279 87.8667 307.914 88.685 309.112 89.9874C310.337 91.2709 310.984 92.8423 311.053 94.7017L307.576 94.1403C307.504 93.1583 307.104 92.343 306.377 91.6943C305.677 91.0268 304.786 90.6058 303.706 90.4314C302.806 90.286 301.937 90.3767 301.099 90.7035C300.265 91.0077 299.54 91.5607 298.926 92.3625C298.334 93.1679 297.935 94.2123 297.728 95.4957C297.575 96.4413 297.574 97.3074 297.724 98.094C297.874 98.8807 298.135 99.558 298.505 100.126C298.898 100.698 299.376 101.168 299.94 101.536C300.53 101.885 301.152 102.113 301.804 102.218C302.525 102.334 303.196 102.327 303.817 102.196C304.465 102.047 305.027 101.78 305.505 101.395C306.005 101.014 306.387 100.509 306.65 99.8817L310.127 100.443C309.48 102.164 308.372 103.452 306.802 104.307C305.232 105.163 303.423 105.425 301.375 105.094Z" fill="white"/>
<path d="M193.754 128.146C192.043 127.87 190.584 127.323 189.377 126.504C188.173 125.663 187.302 124.621 186.763 123.379C186.225 122.137 186.077 120.762 186.321 119.253L189.865 119.826C189.727 120.681 189.803 121.502 190.092 122.288C190.384 123.051 190.867 123.707 191.541 124.255C192.241 124.783 193.131 125.135 194.211 125.309C195.179 125.466 196.026 125.441 196.752 125.234C197.478 125.028 198.065 124.684 198.512 124.202C198.986 123.701 199.28 123.09 199.397 122.369C199.535 121.514 199.445 120.783 199.127 120.177C198.831 119.575 198.384 119.053 197.786 118.61C197.188 118.166 196.483 117.741 195.671 117.332C194.882 116.928 194.052 116.493 193.18 116.029C191.458 115.104 190.213 114.095 189.442 113C188.698 111.887 188.452 110.553 188.702 109C188.917 107.671 189.406 106.572 190.17 105.702C190.96 104.813 191.972 104.191 193.207 103.836C194.446 103.458 195.842 103.395 197.395 103.646C198.925 103.893 200.208 104.389 201.242 105.133C202.299 105.881 203.074 106.804 203.567 107.9C204.06 108.996 204.21 110.21 204.019 111.542L200.44 110.964C200.538 110.356 200.477 109.734 200.256 109.098C200.035 108.461 199.639 107.912 199.067 107.45C198.499 106.966 197.753 106.649 196.83 106.5C196.069 106.354 195.362 106.367 194.711 106.539C194.06 106.711 193.512 107.027 193.068 107.487C192.647 107.95 192.379 108.542 192.262 109.262C192.146 109.983 192.209 110.594 192.452 111.095C192.698 111.574 193.088 112.018 193.622 112.428C194.157 112.837 194.785 113.239 195.506 113.633C196.254 114.007 197.075 114.429 197.97 114.897C199.056 115.465 200.015 116.105 200.847 116.817C201.682 117.506 202.288 118.331 202.664 119.293C203.066 120.236 203.158 121.383 202.94 122.734C202.751 123.904 202.271 124.947 201.5 125.862C200.729 126.778 199.694 127.465 198.396 127.926C197.102 128.363 195.554 128.437 193.754 128.146Z" fill="white"/>
<path d="M204.536 137.095L208.438 112.914L211.476 113.404L211.389 116.093C211.832 115.633 212.362 115.211 212.979 114.825C213.595 114.439 214.296 114.171 215.083 114.021C215.895 113.852 216.808 113.849 217.821 114.013C219.464 114.278 220.831 114.891 221.923 115.853C223.037 116.819 223.836 118.022 224.32 119.463C224.803 120.904 224.909 122.469 224.636 124.157C224.364 125.846 223.771 127.298 222.859 128.514C221.951 129.707 220.816 130.587 219.455 131.152C218.097 131.695 216.597 131.834 214.954 131.569C213.626 131.355 212.497 130.907 211.568 130.225C210.642 129.522 209.963 128.65 209.531 127.609L207.912 137.64L204.536 137.095ZM214.888 128.544C215.945 128.714 216.919 128.618 217.809 128.253C218.7 127.889 219.439 127.315 220.027 126.532C220.641 125.73 221.043 124.744 221.232 123.573C221.417 122.425 221.344 121.373 221.013 120.419C220.705 119.468 220.185 118.68 219.455 118.054C218.725 117.428 217.831 117.029 216.773 116.858C215.737 116.691 214.763 116.788 213.851 117.149C212.961 117.513 212.22 118.098 211.628 118.904C211.036 119.709 210.648 120.686 210.462 121.834C210.277 122.983 210.339 124.032 210.647 124.983C210.956 125.934 211.475 126.722 212.205 127.348C212.958 127.978 213.852 128.377 214.888 128.544Z" fill="white"/>
<path d="M234.896 134.789C233.253 134.524 231.86 133.929 230.716 133.005C229.575 132.059 228.75 130.874 228.241 129.452C227.731 128.03 227.618 126.441 227.901 124.685C228.185 122.928 228.781 121.454 229.689 120.26C230.623 119.048 231.781 118.173 233.161 117.633C234.564 117.097 236.109 116.965 237.797 117.238C239.44 117.503 240.798 118.104 241.871 119.039C242.97 119.956 243.75 121.064 244.21 122.362C244.67 123.661 244.782 125.042 244.546 126.506C244.51 126.731 244.47 126.978 244.426 127.249C244.383 127.519 244.326 127.798 244.256 128.087L230.28 125.831L230.661 123.467L241.296 125.184C241.446 123.822 241.146 122.676 240.395 121.746C239.645 120.817 238.605 120.245 237.277 120.03C236.377 119.885 235.5 119.951 234.647 120.229C233.817 120.511 233.102 121.008 232.502 121.72C231.906 122.409 231.511 123.35 231.319 124.543L231.166 125.489C230.966 126.727 231.036 127.801 231.374 128.71C231.712 129.62 232.228 130.361 232.92 130.935C233.639 131.49 234.448 131.84 235.349 131.986C236.406 132.157 237.335 132.052 238.136 131.673C238.936 131.294 239.57 130.727 240.038 129.971L243.414 130.516C242.951 131.527 242.303 132.392 241.471 133.113C240.643 133.811 239.671 134.324 238.556 134.652C237.444 134.958 236.224 135.003 234.896 134.789Z" fill="white"/>
<path d="M252.354 137.607C250.936 137.379 249.802 136.964 248.952 136.365C248.105 135.743 247.52 135.002 247.197 134.141C246.874 133.281 246.787 132.389 246.936 131.466C247.114 130.362 247.548 129.462 248.238 128.765C248.95 128.071 249.881 127.598 251.031 127.345C252.202 127.095 253.554 127.094 255.084 127.341L259.507 128.055C259.663 127.087 259.634 126.262 259.421 125.581C259.23 124.903 258.867 124.359 258.333 123.949C257.802 123.517 257.121 123.234 256.288 123.1C255.253 122.932 254.31 123.046 253.462 123.44C252.639 123.816 252.071 124.475 251.757 125.417L248.381 124.872C248.716 123.656 249.299 122.687 250.132 121.967C250.967 121.224 251.962 120.715 253.115 120.439C254.294 120.144 255.502 120.097 256.74 120.296C258.316 120.551 259.598 121.047 260.588 121.784C261.577 122.521 262.27 123.453 262.665 124.58C263.064 125.684 263.151 126.934 262.926 128.33L261.264 138.63L258.327 138.156L258.52 135.242C258.223 135.656 257.861 136.036 257.435 136.383C257.033 136.734 256.571 137.018 256.051 137.234C255.554 137.454 254.989 137.594 254.355 137.653C253.741 137.739 253.074 137.724 252.354 137.607ZM253.437 134.975C254.179 135.095 254.867 135.056 255.499 134.858C256.132 134.66 256.69 134.346 257.175 133.916C257.664 133.463 258.059 132.95 258.359 132.374C258.686 131.78 258.915 131.147 259.047 130.475L259.052 130.442L255.035 129.793C254.044 129.633 253.227 129.617 252.583 129.744C251.962 129.874 251.483 130.121 251.148 130.482C250.812 130.844 250.601 131.295 250.514 131.835C250.43 132.353 250.48 132.835 250.662 133.28C250.87 133.706 251.204 134.072 251.663 134.377C252.125 134.66 252.716 134.859 253.437 134.975Z" fill="white"/>
<path d="M276.21 141.043L269.831 130.553L278.102 124.161L282.187 124.821L272.358 132.278L272.795 129.784L280.463 141.73L276.21 141.043ZM265.508 139.315L269.431 114.999L272.807 115.544L268.884 139.86L265.508 139.315Z" fill="white"/>
<path d="M283.547 142.228L286.25 125.477L289.626 126.022L286.923 142.773L283.547 142.228ZM288.472 122.439C287.819 122.334 287.311 122.044 286.949 121.57C286.609 121.099 286.49 120.549 286.592 119.918C286.69 119.31 286.973 118.848 287.44 118.53C287.933 118.194 288.505 118.079 289.158 118.184C289.788 118.286 290.285 118.574 290.647 119.048C291.013 119.5 291.147 120.03 291.048 120.638C290.947 121.268 290.649 121.751 290.156 122.088C289.663 122.424 289.102 122.541 288.472 122.439Z" fill="white"/>
<path d="M291.718 143.547L294.42 126.796L297.425 127.281L297.187 130.257C297.895 129.309 298.791 128.622 299.875 128.196C300.964 127.748 302.161 127.63 303.466 127.84C304.816 128.058 305.93 128.527 306.807 129.246C307.688 129.943 308.298 130.884 308.637 132.071C309 133.262 309.044 134.701 308.772 136.39L307.214 146.049L303.872 145.509L305.375 136.188C305.637 134.567 305.486 133.284 304.923 132.338C304.385 131.373 303.442 130.782 302.091 130.564C301.191 130.419 300.344 130.513 299.552 130.847C298.785 131.162 298.132 131.703 297.592 132.471C297.053 133.239 296.687 134.219 296.494 135.413L295.094 144.092L291.718 143.547Z" fill="white"/>
<path d="M317.055 155.677C315.503 155.427 314.174 155.004 313.069 154.41C311.96 153.838 311.133 153.093 310.589 152.173C310.067 151.257 309.901 150.214 310.089 149.043C310.184 148.458 310.417 147.871 310.789 147.285C311.179 146.724 311.724 146.211 312.423 145.746C313.121 145.282 314.011 144.917 315.093 144.653L316.676 146.433C315.501 146.705 314.675 147.103 314.197 147.627C313.72 148.151 313.438 148.683 313.351 149.223C313.242 149.898 313.354 150.494 313.686 151.01C314.019 151.525 314.516 151.952 315.177 152.29C315.839 152.628 316.608 152.868 317.486 153.009C318.341 153.147 319.106 153.132 319.779 152.964C320.472 152.821 321.024 152.552 321.434 152.157C321.863 151.787 322.127 151.298 322.225 150.69C322.337 149.992 322.173 149.365 321.731 148.809C321.29 148.252 320.323 147.807 318.829 147.474C317.583 147.18 316.523 146.882 315.648 146.579C314.799 146.257 314.088 145.946 313.513 145.645C312.941 145.322 312.464 144.991 312.08 144.651C311.722 144.293 311.409 143.943 311.141 143.599L311.266 142.822L315.237 139.894L317.718 141.265L313.589 144.098L314.538 142.727C314.756 142.947 314.967 143.142 315.17 143.314C315.374 143.485 315.646 143.656 315.988 143.827C316.353 144.001 316.843 144.185 317.458 144.376C318.097 144.572 318.939 144.789 319.986 145.027C321.45 145.402 322.608 145.878 323.462 146.455C324.338 147.035 324.932 147.72 325.244 148.509C325.559 149.277 325.638 150.144 325.482 151.112C325.326 152.08 324.907 152.96 324.225 153.751C323.543 154.542 322.605 155.13 321.412 155.514C320.218 155.899 318.766 155.954 317.055 155.677ZM319.119 142.669C317.701 142.44 316.53 141.974 315.604 141.27C314.701 140.57 314.052 139.726 313.657 138.738C313.285 137.754 313.189 136.699 313.371 135.573C313.549 134.47 313.969 133.51 314.632 132.693C315.318 131.879 316.199 131.282 317.277 130.902C318.377 130.525 319.636 130.451 321.054 130.68C322.472 130.909 323.632 131.374 324.535 132.074C325.461 132.778 326.11 133.622 326.482 134.606C326.877 135.594 326.986 136.639 326.808 137.742C326.626 138.868 326.192 139.838 325.507 140.651C324.844 141.468 323.962 142.065 322.863 142.442C321.785 142.823 320.537 142.898 319.119 142.669ZM319.555 139.968C320.658 140.146 321.581 140.006 322.325 139.548C323.068 139.091 323.525 138.333 323.696 137.275C323.867 136.217 323.671 135.353 323.109 134.685C322.548 134.017 321.715 133.594 320.612 133.416C319.532 133.241 318.609 133.381 317.843 133.835C317.099 134.292 316.642 135.05 316.471 136.108C316.301 137.167 316.496 138.03 317.058 138.698C317.643 139.37 318.475 139.793 319.555 139.968ZM323.292 134.195L322.913 131.396L329.867 132.519L329.497 134.815L323.292 134.195Z" fill="white"/>
<path fill-rule="evenodd" clip-rule="evenodd" d="M155.826 192.441C193.72 189.023 236.314 182.978 264.421 208.657C293.143 234.897 295.437 278.578 292.615 317.41C290.019 353.132 277.567 388.971 249.687 411.406C223.965 432.105 188.647 424.074 155.826 427.485C115.937 431.629 72.9156 456.446 40.2336 433.17C5.78634 408.637 -3.80633 359.435 1.26832 317.41C5.88244 279.198 35.2706 250.805 65.1744 226.626C91.2909 205.51 122.395 195.456 155.826 192.441Z" fill="#800000"/>
<path d="M97.5837 283.354V259.407H106.441C108.105 259.407 109.496 259.681 110.613 260.228C111.73 260.753 112.562 261.483 113.109 262.418C113.679 263.33 113.964 264.368 113.964 265.531C113.964 266.74 113.702 267.754 113.178 268.576C112.653 269.397 111.958 270.035 111.092 270.491C110.248 270.925 109.336 271.175 108.356 271.244L108.835 270.902C109.883 270.925 110.841 271.21 111.707 271.757C112.573 272.282 113.257 272.989 113.759 273.878C114.26 274.767 114.511 275.748 114.511 276.82C114.511 278.052 114.215 279.169 113.622 280.173C113.029 281.153 112.152 281.929 110.989 282.499C109.826 283.069 108.401 283.354 106.714 283.354H97.5837ZM101.003 280.515H106.27C107.774 280.515 108.937 280.173 109.758 279.488C110.601 278.781 111.023 277.789 111.023 276.512C111.023 275.258 110.59 274.254 109.724 273.502C108.88 272.749 107.706 272.373 106.201 272.373H101.003V280.515ZM101.003 269.739H106.065C107.501 269.739 108.595 269.408 109.348 268.747C110.1 268.062 110.476 267.127 110.476 265.941C110.476 264.801 110.1 263.9 109.348 263.239C108.595 262.555 107.467 262.212 105.962 262.212H101.003V269.739Z" fill="white"/>
<path d="M118.386 283.354V266.386H121.464L121.737 269.636C122.125 268.883 122.615 268.233 123.208 267.686C123.8 267.139 124.496 266.717 125.294 266.42C126.114 266.124 127.038 265.976 128.064 265.976V269.568H127.106C126.377 269.568 125.681 269.659 125.02 269.841C124.382 270.024 123.812 270.32 123.31 270.731C122.832 271.141 122.455 271.711 122.182 272.441C121.931 273.148 121.806 274.038 121.806 275.11V283.354H118.386Z" fill="white"/>
<path d="M131.449 283.354V266.386H134.869V283.354H131.449ZM133.159 263.034C132.498 263.034 131.951 262.828 131.518 262.418C131.107 262.007 130.902 261.483 130.902 260.844C130.902 260.228 131.107 259.727 131.518 259.339C131.951 258.928 132.498 258.723 133.159 258.723C133.797 258.723 134.333 258.928 134.766 259.339C135.199 259.727 135.416 260.228 135.416 260.844C135.416 261.483 135.199 262.007 134.766 262.418C134.333 262.828 133.797 263.034 133.159 263.034Z" fill="white"/>
<path d="M146.736 283.354C145.642 283.354 144.696 283.183 143.898 282.841C143.1 282.499 142.484 281.929 142.051 281.131C141.618 280.332 141.401 279.249 141.401 277.881V269.26H138.495V266.386H141.401L141.846 262.144H144.821V266.386H149.677V269.26H144.821V277.915C144.821 278.895 145.026 279.568 145.437 279.933C145.847 280.275 146.554 280.446 147.557 280.446H149.472V283.354H146.736Z" fill="white"/>
<path d="M153.624 283.354V266.386H157.044V283.354H153.624ZM155.334 263.034C154.673 263.034 154.125 262.828 153.692 262.418C153.282 262.007 153.077 261.483 153.077 260.844C153.077 260.228 153.282 259.727 153.692 259.339C154.125 258.928 154.673 258.723 155.334 258.723C155.972 258.723 156.508 258.928 156.941 259.339C157.374 259.727 157.591 260.228 157.591 260.844C157.591 261.483 157.374 262.007 156.941 262.418C156.508 262.828 155.972 263.034 155.334 263.034Z" fill="white"/>
<path d="M168.569 283.765C167.178 283.765 165.924 283.525 164.807 283.046C163.713 282.567 162.835 281.906 162.174 281.062C161.513 280.195 161.114 279.181 160.977 278.017H164.431C164.568 278.565 164.807 279.067 165.149 279.523C165.491 279.956 165.947 280.309 166.517 280.583C167.11 280.857 167.794 280.994 168.569 280.994C169.321 280.994 169.937 280.891 170.415 280.686C170.894 280.458 171.247 280.161 171.475 279.796C171.703 279.431 171.817 279.044 171.817 278.633C171.817 278.017 171.658 277.55 171.339 277.231C171.019 276.911 170.552 276.66 169.937 276.478C169.344 276.296 168.626 276.113 167.782 275.931C167.098 275.771 166.391 275.577 165.662 275.349C164.932 275.121 164.271 274.836 163.679 274.494C163.086 274.129 162.607 273.684 162.242 273.16C161.877 272.612 161.695 271.939 161.695 271.141C161.695 270.161 161.946 269.283 162.447 268.507C162.972 267.709 163.713 267.093 164.67 266.66C165.628 266.204 166.768 265.976 168.09 265.976C169.959 265.976 171.475 266.432 172.638 267.344C173.824 268.233 174.508 269.522 174.69 271.21H171.407C171.293 270.434 170.951 269.83 170.381 269.397C169.811 268.963 169.036 268.747 168.056 268.747C167.098 268.747 166.357 268.94 165.833 269.328C165.331 269.716 165.081 270.229 165.081 270.868C165.081 271.255 165.229 271.609 165.525 271.928C165.844 272.225 166.289 272.475 166.859 272.681C167.452 272.886 168.147 273.08 168.945 273.262C170.062 273.49 171.088 273.775 172.023 274.117C172.98 274.46 173.755 274.95 174.348 275.589C174.964 276.227 175.271 277.162 175.271 278.394C175.294 279.443 175.032 280.378 174.485 281.199C173.938 281.997 173.162 282.624 172.159 283.08C171.156 283.537 169.959 283.765 168.569 283.765Z" fill="white"/>
<path d="M179.299 283.354V258.723H182.719V269.191C183.289 268.188 184.076 267.401 185.079 266.831C186.082 266.261 187.222 265.976 188.498 265.976C189.821 265.976 190.972 266.261 191.952 266.831C192.933 267.378 193.685 268.222 194.209 269.362C194.734 270.48 194.996 271.882 194.996 273.57V283.354H191.61V273.912C191.61 272.27 191.28 271.027 190.619 270.183C189.957 269.317 188.943 268.883 187.575 268.883C186.663 268.883 185.831 269.111 185.079 269.568C184.349 270.001 183.768 270.639 183.335 271.483C182.924 272.327 182.719 273.353 182.719 274.562V283.354H179.299Z" fill="white"/>
<path d="M37.2714 323.266V299.319H45.4787C47.371 299.319 48.9326 299.638 50.1637 300.277C51.3948 300.892 52.3067 301.736 52.8995 302.808C53.4922 303.88 53.7886 305.089 53.7886 306.434C53.7886 307.734 53.4922 308.92 52.8995 309.992C52.3295 311.064 51.429 311.931 50.1979 312.592C48.9668 313.231 47.3938 313.55 45.4787 313.55H40.6911V323.266H37.2714ZM40.6911 310.711H45.3419C47.0974 310.711 48.3627 310.323 49.1378 309.547C49.9129 308.772 50.3005 307.734 50.3005 306.434C50.3005 305.066 49.9129 304.017 49.1378 303.287C48.3627 302.534 47.0974 302.158 45.3419 302.158H40.6911V310.711Z" fill="white"/>
<path d="M62.0814 323.676C60.6451 323.676 59.4596 323.448 58.5249 322.992C57.5902 322.513 56.8948 321.874 56.4389 321.076C55.9829 320.278 55.7549 319.411 55.7549 318.476C55.7549 317.359 56.0399 316.401 56.6098 315.603C57.2026 314.804 58.0461 314.189 59.1404 313.755C60.2575 313.322 61.5912 313.105 63.1415 313.105H67.6213C67.6213 312.125 67.4617 311.315 67.1425 310.676C66.8461 310.038 66.4016 309.559 65.8088 309.24C65.2161 308.897 64.498 308.726 63.6544 308.726C62.6057 308.726 61.6938 308.989 60.9187 309.513C60.1663 310.015 59.7104 310.756 59.5508 311.737H56.1311C56.2679 310.483 56.6896 309.433 57.3964 308.59C58.1031 307.723 59.0036 307.062 60.0979 306.605C61.215 306.126 62.4005 305.887 63.6544 305.887C65.2503 305.887 66.5954 306.172 67.6897 306.742C68.784 307.312 69.6161 308.122 70.1861 309.171C70.756 310.197 71.041 311.418 71.041 312.832V323.266H68.0658L67.7923 320.358C67.5643 320.814 67.2679 321.247 66.9031 321.658C66.5612 322.068 66.1508 322.422 65.6721 322.718C65.2161 323.015 64.6803 323.243 64.0648 323.402C63.472 323.585 62.8109 323.676 62.0814 323.676ZM62.7311 320.905C63.4834 320.905 64.156 320.757 64.7487 320.46C65.3415 320.164 65.843 319.765 66.2534 319.263C66.6638 318.739 66.9715 318.168 67.1767 317.553C67.4047 316.914 67.5301 316.253 67.5529 315.568V315.534H63.4834C62.4803 315.534 61.671 315.648 61.0555 315.876C60.4627 316.104 60.0295 316.424 59.756 316.834C59.4824 317.245 59.3456 317.724 59.3456 318.271C59.3456 318.796 59.471 319.263 59.7218 319.674C59.9953 320.061 60.3829 320.369 60.8845 320.597C61.386 320.803 62.0016 320.905 62.7311 320.905Z" fill="white"/>
<path d="M75.3391 323.266V306.298H78.4168L78.6904 309.547C79.078 308.795 79.5681 308.145 80.1609 307.598C80.7536 307.05 81.449 306.628 82.2469 306.332C83.0676 306.035 83.991 305.887 85.0169 305.887V309.479H84.0593C83.3298 309.479 82.6345 309.57 81.9733 309.753C81.335 309.935 80.765 310.232 80.2635 310.642C79.7847 311.053 79.4086 311.623 79.135 312.353C78.8842 313.06 78.7588 313.949 78.7588 315.021V323.266H75.3391Z" fill="white"/>
<path d="M88.163 323.266V298.635H91.5827V323.266H88.163Z" fill="white"/>
<path d="M96.4507 323.266V306.298H99.8704V323.266H96.4507ZM98.1605 302.945C97.4994 302.945 96.9522 302.74 96.5191 302.329C96.1087 301.919 95.9035 301.394 95.9035 300.756C95.9035 300.14 96.1087 299.638 96.5191 299.25C96.9522 298.84 97.4994 298.635 98.1605 298.635C98.7989 298.635 99.3346 298.84 99.7678 299.25C100.201 299.638 100.418 300.14 100.418 300.756C100.418 301.394 100.201 301.919 99.7678 302.329C99.3346 302.74 98.7989 302.945 98.1605 302.945Z" fill="white"/>
<path d="M110.438 323.676C109.002 323.676 107.816 323.448 106.882 322.992C105.947 322.513 105.252 321.874 104.796 321.076C104.34 320.278 104.112 319.411 104.112 318.476C104.112 317.359 104.397 316.401 104.967 315.603C105.559 314.804 106.403 314.189 107.497 313.755C108.614 313.322 109.948 313.105 111.498 313.105H115.978C115.978 312.125 115.818 311.315 115.499 310.676C115.203 310.038 114.758 309.559 114.166 309.24C113.573 308.897 112.855 308.726 112.011 308.726C110.962 308.726 110.05 308.989 109.275 309.513C108.523 310.015 108.067 310.756 107.907 311.737H104.488C104.625 310.483 105.046 309.433 105.753 308.59C106.46 307.723 107.36 307.062 108.455 306.605C109.572 306.126 110.757 305.887 112.011 305.887C113.607 305.887 114.952 306.172 116.046 306.742C117.141 307.312 117.973 308.122 118.543 309.171C119.113 310.197 119.398 311.418 119.398 312.832V323.266H116.423L116.149 320.358C115.921 320.814 115.625 321.247 115.26 321.658C114.918 322.068 114.508 322.422 114.029 322.718C113.573 323.015 113.037 323.243 112.421 323.402C111.829 323.585 111.168 323.676 110.438 323.676ZM111.088 320.905C111.84 320.905 112.513 320.757 113.105 320.46C113.698 320.164 114.2 319.765 114.61 319.263C115.02 318.739 115.328 318.168 115.533 317.553C115.761 316.914 115.887 316.253 115.91 315.568V315.534H111.84C110.837 315.534 110.028 315.648 109.412 315.876C108.819 316.104 108.386 316.424 108.113 316.834C107.839 317.245 107.702 317.724 107.702 318.271C107.702 318.796 107.828 319.263 108.078 319.674C108.352 320.061 108.74 320.369 109.241 320.597C109.743 320.803 110.358 320.905 111.088 320.905Z" fill="white"/>
<path d="M123.696 323.266V306.298H126.739L127.013 308.692C127.56 307.803 128.278 307.119 129.167 306.64C130.079 306.138 131.117 305.887 132.279 305.887C133.168 305.887 133.966 306.001 134.673 306.229C135.403 306.457 136.041 306.811 136.588 307.29C137.135 307.769 137.591 308.373 137.956 309.103C138.549 308.099 139.369 307.312 140.418 306.742C141.467 306.172 142.584 305.887 143.769 305.887C145.16 305.887 146.357 306.172 147.36 306.742C148.386 307.29 149.161 308.133 149.686 309.274C150.233 310.391 150.506 311.794 150.506 313.482V323.266H147.121V313.824C147.121 312.182 146.79 310.939 146.129 310.095C145.491 309.228 144.533 308.795 143.257 308.795C142.413 308.795 141.649 309.023 140.965 309.479C140.281 309.912 139.746 310.551 139.358 311.395C138.993 312.239 138.811 313.265 138.811 314.474V323.266H135.391V313.824C135.391 312.182 135.061 310.939 134.399 310.095C133.761 309.228 132.804 308.795 131.527 308.795C130.683 308.795 129.92 309.023 129.236 309.479C128.575 309.912 128.05 310.551 127.663 311.395C127.298 312.239 127.116 313.265 127.116 314.474V323.266H123.696Z" fill="white"/>
<path d="M162.652 323.676C160.987 323.676 159.517 323.311 158.24 322.581C156.963 321.829 155.96 320.791 155.231 319.468C154.501 318.146 154.136 316.595 154.136 314.816C154.136 313.037 154.49 311.486 155.197 310.163C155.926 308.818 156.929 307.769 158.206 307.016C159.505 306.263 161.01 305.887 162.72 305.887C164.384 305.887 165.82 306.263 167.029 307.016C168.26 307.746 169.206 308.715 169.867 309.924C170.528 311.133 170.859 312.478 170.859 313.961C170.859 314.189 170.859 314.439 170.859 314.713C170.859 314.987 170.847 315.272 170.825 315.568H156.667V313.174H167.439C167.371 311.805 166.892 310.722 166.003 309.924C165.114 309.126 163.997 308.726 162.652 308.726C161.74 308.726 160.885 308.932 160.087 309.342C159.312 309.753 158.685 310.357 158.206 311.155C157.727 311.931 157.488 312.923 157.488 314.132V315.089C157.488 316.344 157.727 317.393 158.206 318.237C158.685 319.081 159.312 319.731 160.087 320.187C160.885 320.62 161.74 320.837 162.652 320.837C163.723 320.837 164.624 320.586 165.353 320.084C166.083 319.582 166.618 318.921 166.96 318.1H170.38C170.084 319.172 169.582 320.13 168.875 320.974C168.169 321.795 167.291 322.456 166.242 322.958C165.194 323.437 163.997 323.676 162.652 323.676Z" fill="white"/>
<path d="M174.624 323.266V306.298H177.667L177.907 309.274C178.454 308.225 179.229 307.404 180.232 306.811C181.235 306.195 182.398 305.887 183.72 305.887C185.088 305.887 186.262 306.172 187.243 306.742C188.223 307.29 188.975 308.122 189.5 309.24C190.047 310.357 190.32 311.771 190.32 313.482V323.266H186.935V313.824C186.935 312.182 186.582 310.939 185.875 310.095C185.191 309.228 184.165 308.795 182.797 308.795C181.885 308.795 181.064 309.023 180.335 309.479C179.628 309.912 179.07 310.551 178.659 311.395C178.249 312.239 178.044 313.265 178.044 314.474V323.266H174.624Z" fill="white"/>
<path d="M201.638 323.266C200.544 323.266 199.598 323.095 198.8 322.752C198.002 322.41 197.386 321.84 196.953 321.042C196.52 320.244 196.304 319.16 196.304 317.792V309.171H193.397V306.298H196.304L196.748 302.056H199.723V306.298H204.579V309.171H199.723V317.826C199.723 318.807 199.928 319.48 200.339 319.845C200.749 320.187 201.456 320.358 202.459 320.358H204.374V323.266H201.638Z" fill="white"/>
<path d="M213.998 323.676C212.561 323.676 211.376 323.448 210.441 322.992C209.506 322.513 208.811 321.874 208.355 321.076C207.899 320.278 207.671 319.411 207.671 318.476C207.671 317.359 207.956 316.401 208.526 315.603C209.119 314.804 209.962 314.189 211.057 313.755C212.174 313.322 213.507 313.105 215.058 313.105H219.537C219.537 312.125 219.378 311.315 219.059 310.676C218.762 310.038 218.318 309.559 217.725 309.24C217.132 308.897 216.414 308.726 215.571 308.726C214.522 308.726 213.61 308.989 212.835 309.513C212.083 310.015 211.627 310.756 211.467 311.737H208.047C208.184 310.483 208.606 309.433 209.313 308.59C210.019 307.723 210.92 307.062 212.014 306.605C213.131 306.126 214.317 305.887 215.571 305.887C217.166 305.887 218.512 306.172 219.606 306.742C220.7 307.312 221.532 308.122 222.102 309.171C222.672 310.197 222.957 311.418 222.957 312.832V323.266H219.982L219.708 320.358C219.48 320.814 219.184 321.247 218.819 321.658C218.477 322.068 218.067 322.422 217.588 322.718C217.132 323.015 216.597 323.243 215.981 323.402C215.388 323.585 214.727 323.676 213.998 323.676ZM214.647 320.905C215.4 320.905 216.072 320.757 216.665 320.46C217.258 320.164 217.759 319.765 218.17 319.263C218.58 318.739 218.888 318.168 219.093 317.553C219.321 316.914 219.446 316.253 219.469 315.568V315.534H215.4C214.396 315.534 213.587 315.648 212.972 315.876C212.379 316.104 211.946 316.424 211.672 316.834C211.399 317.245 211.262 317.724 211.262 318.271C211.262 318.796 211.387 319.263 211.638 319.674C211.912 320.061 212.299 320.369 212.801 320.597C213.302 320.803 213.918 320.905 214.647 320.905Z" fill="white"/>
<path d="M227.255 323.266V306.298H230.333L230.607 309.547C230.994 308.795 231.484 308.145 232.077 307.598C232.67 307.05 233.365 306.628 234.163 306.332C234.984 306.035 235.907 305.887 236.933 305.887V309.479H235.976C235.246 309.479 234.551 309.57 233.89 309.753C233.251 309.935 232.681 310.232 232.18 310.642C231.701 311.053 231.325 311.623 231.051 312.353C230.8 313.06 230.675 313.949 230.675 315.021V323.266H227.255Z" fill="white"/>
<path d="M241.994 330.792L246.235 321.35H245.243L238.438 306.298H242.131L247.568 318.579L253.006 306.298H256.596L245.619 330.792H241.994Z" fill="white"/>
<path d="M89.9195 363.177V339.23H97.5796C100.361 339.23 102.664 339.721 104.487 340.701C106.311 341.682 107.656 343.073 108.523 344.875C109.412 346.654 109.856 348.775 109.856 351.238C109.856 353.701 109.412 355.822 108.523 357.601C107.656 359.38 106.311 360.76 104.487 361.74C102.664 362.698 100.361 363.177 97.5796 363.177H89.9195ZM93.3392 360.303H97.4428C99.6542 360.303 101.41 359.939 102.709 359.209C104.009 358.479 104.932 357.441 105.479 356.096C106.049 354.727 106.334 353.108 106.334 351.238C106.334 349.345 106.049 347.714 105.479 346.346C104.932 344.977 104.009 343.928 102.709 343.199C101.41 342.469 99.6542 342.104 97.4428 342.104H93.3392V360.303Z" fill="white"/>
<path d="M121.625 363.588C119.961 363.588 118.49 363.223 117.214 362.493C115.937 361.74 114.934 360.703 114.204 359.38C113.475 358.057 113.11 356.506 113.11 354.727C113.11 352.948 113.463 351.397 114.17 350.075C114.9 348.729 115.903 347.68 117.18 346.927C118.479 346.175 119.984 345.798 121.694 345.798C123.358 345.798 124.794 346.175 126.002 346.927C127.233 347.657 128.18 348.626 128.841 349.835C129.502 351.044 129.832 352.39 129.832 353.872C129.832 354.1 129.832 354.351 129.832 354.625C129.832 354.898 129.821 355.183 129.798 355.48H115.641V353.085H126.413C126.344 351.717 125.866 350.633 124.976 349.835C124.087 349.037 122.97 348.638 121.625 348.638C120.713 348.638 119.858 348.843 119.06 349.254C118.285 349.664 117.658 350.269 117.18 351.067C116.701 351.842 116.461 352.834 116.461 354.043V355.001C116.461 356.255 116.701 357.304 117.18 358.148C117.658 358.992 118.285 359.642 119.06 360.098C119.858 360.532 120.713 360.748 121.625 360.748C122.697 360.748 123.597 360.497 124.327 359.996C125.056 359.494 125.592 358.832 125.934 358.011H129.354C129.057 359.083 128.556 360.041 127.849 360.885C127.142 361.706 126.265 362.367 125.216 362.869C124.167 363.348 122.97 363.588 121.625 363.588Z" fill="white"/>
<path d="M143.002 363.588C142.09 363.588 141.258 363.462 140.505 363.211C139.753 362.96 139.081 362.618 138.488 362.185C137.895 361.729 137.405 361.182 137.017 360.543L136.675 363.177H133.598V338.546H137.017V348.877C137.564 348.079 138.317 347.372 139.274 346.756C140.255 346.118 141.508 345.798 143.036 345.798C144.7 345.798 146.148 346.186 147.379 346.962C148.633 347.737 149.613 348.798 150.32 350.143C151.027 351.489 151.38 353.017 151.38 354.727C151.38 356.438 151.027 357.966 150.32 359.311C149.613 360.634 148.633 361.683 147.379 362.459C146.125 363.211 144.666 363.588 143.002 363.588ZM142.455 360.611C143.526 360.611 144.472 360.36 145.293 359.859C146.114 359.357 146.752 358.673 147.208 357.806C147.687 356.917 147.926 355.879 147.926 354.693C147.926 353.53 147.687 352.504 147.208 351.614C146.752 350.725 146.114 350.029 145.293 349.527C144.472 349.026 143.526 348.775 142.455 348.775C141.406 348.775 140.46 349.026 139.616 349.527C138.796 350.029 138.157 350.725 137.701 351.614C137.245 352.504 137.017 353.53 137.017 354.693C137.017 355.856 137.245 356.882 137.701 357.772C138.157 358.661 138.796 359.357 139.616 359.859C140.46 360.36 141.406 360.611 142.455 360.611Z" fill="white"/>
<path d="M161.082 363.588C159.646 363.588 158.461 363.36 157.526 362.903C156.591 362.424 155.896 361.786 155.44 360.988C154.984 360.189 154.756 359.323 154.756 358.388C154.756 357.27 155.041 356.312 155.611 355.514C156.204 354.716 157.047 354.1 158.141 353.667C159.259 353.233 160.592 353.017 162.142 353.017H166.622C166.622 352.036 166.463 351.226 166.144 350.588C165.847 349.949 165.403 349.47 164.81 349.151C164.217 348.809 163.499 348.638 162.655 348.638C161.607 348.638 160.695 348.9 159.92 349.425C159.167 349.926 158.711 350.668 158.552 351.648H155.132C155.269 350.394 155.691 349.345 156.397 348.501C157.104 347.634 158.005 346.973 159.099 346.517C160.216 346.038 161.402 345.798 162.655 345.798C164.251 345.798 165.596 346.084 166.691 346.654C167.785 347.224 168.617 348.034 169.187 349.083C169.757 350.109 170.042 351.329 170.042 352.743V363.177H167.067L166.793 360.269C166.565 360.725 166.269 361.159 165.904 361.569C165.562 361.98 165.152 362.333 164.673 362.63C164.217 362.926 163.681 363.154 163.066 363.314C162.473 363.496 161.812 363.588 161.082 363.588ZM161.732 360.817C162.484 360.817 163.157 360.668 163.75 360.372C164.342 360.075 164.844 359.676 165.254 359.175C165.665 358.65 165.973 358.08 166.178 357.464C166.406 356.825 166.531 356.164 166.554 355.48V355.446H162.484C161.481 355.446 160.672 355.56 160.056 355.788C159.464 356.016 159.031 356.335 158.757 356.746C158.483 357.156 158.347 357.635 158.347 358.182C158.347 358.707 158.472 359.175 158.723 359.585C158.996 359.973 159.384 360.281 159.885 360.509C160.387 360.714 161.003 360.817 161.732 360.817Z" fill="white"/>
<path d="M180.983 363.177C179.889 363.177 178.943 363.006 178.145 362.664C177.347 362.322 176.731 361.752 176.298 360.953C175.865 360.155 175.648 359.072 175.648 357.704V349.083H172.742V346.209H175.648L176.093 341.967H179.068V346.209H183.924V349.083H179.068V357.738C179.068 358.718 179.273 359.391 179.684 359.756C180.094 360.098 180.801 360.269 181.804 360.269H183.719V363.177H180.983Z" fill="white"/>
<path d="M194.995 363.588C193.331 363.588 191.86 363.223 190.584 362.493C189.307 361.74 188.304 360.703 187.574 359.38C186.845 358.057 186.48 356.506 186.48 354.727C186.48 352.948 186.833 351.397 187.54 350.075C188.27 348.729 189.273 347.68 190.549 346.927C191.849 346.175 193.354 345.798 195.063 345.798C196.728 345.798 198.164 346.175 199.372 346.927C200.603 347.657 201.55 348.626 202.211 349.835C202.872 351.044 203.202 352.39 203.202 353.872C203.202 354.1 203.202 354.351 203.202 354.625C203.202 354.898 203.191 355.183 203.168 355.48H189.011V353.085H199.783C199.714 351.717 199.236 350.633 198.346 349.835C197.457 349.037 196.34 348.638 194.995 348.638C194.083 348.638 193.228 348.843 192.43 349.254C191.655 349.664 191.028 350.269 190.549 351.067C190.071 351.842 189.831 352.834 189.831 354.043V355.001C189.831 356.255 190.071 357.304 190.549 358.148C191.028 358.992 191.655 359.642 192.43 360.098C193.228 360.532 194.083 360.748 194.995 360.748C196.067 360.748 196.967 360.497 197.697 359.996C198.426 359.494 198.962 358.832 199.304 358.011H202.724C202.427 359.083 201.926 360.041 201.219 360.885C200.512 361.706 199.634 362.367 198.586 362.869C197.537 363.348 196.34 363.588 194.995 363.588Z" fill="white"/>
</svg>
