<?xml version="1.0" standalone="no"?>
<!DOCTYPE svg PUBLIC "-//W3C//DTD SVG 20010904//EN"
 "http://www.w3.org/TR/2001/REC-SVG-20010904/DTD/svg10.dtd">
<svg version="1.0" xmlns="http://www.w3.org/2000/svg"
 width="385.000000pt" height="410.000000pt" viewBox="0 0 385.000000 410.000000"
 preserveAspectRatio="xMidYMid meet">

<g transform="translate(0.000000,410.000000) scale(0.100000,-0.100000)"
fill="#004617" stroke="none">
<path d="M1935 3933 c-76 -51 -187 -105 -330 -163 -184 -73 -320 -141 -392
-194 -35 -25 -66 -46 -71 -46 -4 0 -26 18 -47 40 -35 36 -43 39 -75 34 -124
-23 -272 -168 -404 -397 -33 -57 -148 -289 -165 -334 -13 -32 -13 -32 -94 -35
l-81 -3 -43 -80 c-56 -107 -71 -171 -79 -338 -6 -140 -5 -144 30 -282 20 -77
36 -143 36 -148 0 -4 -12 -13 -28 -19 -67 -29 -82 -46 -82 -97 0 -182 183
-531 398 -763 42 -45 46 -54 68 -163 30 -148 62 -214 138 -290 47 -46 78 -67
133 -89 140 -55 403 -216 403 -247 0 -23 173 -4 472 53 l167 32 108 -23 c301
-61 503 -87 503 -64 0 7 26 29 58 49 31 20 98 68 149 106 67 51 108 74 155 87
195 56 287 157 351 385 20 71 33 97 64 130 233 246 392 512 423 710 l13 78
-32 25 c-35 27 -61 71 -61 102 0 11 16 66 35 122 42 124 46 213 16 368 -20
101 -97 347 -112 356 -4 3 -38 -1 -75 -10 -37 -8 -68 -14 -69 -13 -2 2 -29 55
-60 118 -130 261 -250 454 -339 545 -85 87 -149 103 -203 53 -20 -19 -26 -20
-68 -9 -132 33 -467 226 -705 406 l-55 41 -50 -33z m93 -173 c42 -16 131 -60
197 -96 66 -36 154 -83 195 -104 41 -21 151 -90 243 -155 93 -64 174 -114 181
-112 7 3 18 23 25 46 10 35 16 41 39 41 23 0 36 -14 88 -93 63 -95 227 -380
328 -569 l56 -106 62 1 62 2 19 -50 c25 -65 34 -240 18 -360 -7 -49 -25 -148
-41 -219 -17 -72 -30 -133 -30 -138 0 -4 18 -19 41 -34 l41 -25 -7 -52 c-21
-157 -131 -334 -378 -607 -44 -49 -54 -68 -84 -170 -19 -63 -47 -135 -62 -160
-34 -57 -106 -101 -208 -129 -72 -19 -80 -24 -135 -85 -66 -73 -160 -127 -225
-129 -24 -1 -90 19 -183 55 -202 79 -277 92 -465 85 -163 -6 -311 -33 -392
-69 -35 -16 -68 -22 -124 -22 -67 -1 -80 2 -119 28 -24 16 -65 49 -91 73 -32
30 -67 50 -116 67 -181 61 -233 122 -263 306 -14 85 -16 89 -115 221 -183 240
-288 426 -307 541 -15 88 -8 109 47 136 25 12 45 27 45 34 0 7 -14 60 -30 118
-70 243 -77 403 -24 588 l15 52 43 0 c35 0 45 -4 49 -20 7 -27 35 -25 47 3
136 329 213 468 345 626 164 198 235 217 235 65 0 -19 4 -34 9 -34 5 0 31 17
58 38 218 171 242 186 465 281 119 52 243 108 275 127 32 18 66 33 76 33 10 1
52 -12 95 -29z"/>
<path d="M1850 3651 c-161 -51 -445 -232 -700 -443 l-117 -98 -7 -71 c-4 -39
-6 -73 -3 -75 2 -2 91 68 198 155 181 149 201 163 304 206 103 44 320 150 391
191 l31 18 54 -46 c30 -25 83 -60 119 -78 101 -50 267 -152 376 -231 101 -73
253 -199 288 -238 11 -12 31 -21 48 -21 34 0 33 7 -7 97 -82 184 -251 323
-614 507 -122 62 -194 104 -205 121 -14 20 -24 25 -59 24 -23 0 -67 -9 -97
-18z"/>
<path d="M1935 3392 c-16 -2 -51 -19 -76 -38 -26 -19 -80 -48 -121 -65 -114
-47 -254 -125 -361 -201 -99 -71 -227 -183 -227 -199 0 -5 13 -12 29 -15 22
-5 30 -13 35 -36 8 -39 2 -43 -149 -118 -123 -60 -159 -89 -190 -149 -16 -32
-66 -171 -62 -171 1 0 24 7 51 15 27 8 60 15 74 15 21 0 23 -3 17 -27 -8 -35
-24 -53 -106 -119 -37 -29 -77 -69 -89 -89 l-22 -36 16 -212 c10 -117 19 -218
22 -226 6 -18 26 -1 65 56 31 45 57 54 79 28 17 -20 8 -67 -25 -138 -34 -72
-30 -128 15 -220 47 -96 119 -185 299 -369 l166 -170 75 12 c111 17 557 24
779 12 166 -9 197 -9 215 4 40 27 239 229 388 391 l148 163 0 77 c0 43 -7 100
-15 127 -17 56 -20 106 -5 106 5 0 38 -18 72 -41 l63 -40 3 118 c5 194 -23
285 -138 451 -83 121 -72 148 39 97 30 -14 56 -23 59 -21 7 8 -17 64 -55 128
-44 74 -116 138 -241 216 -73 45 -102 69 -102 83 0 16 7 19 51 19 46 0 50 2
38 16 -43 52 -406 324 -539 405 -57 35 -132 84 -166 109 -76 58 -73 57 -109
52z m215 -383 c139 -18 329 -126 462 -262 100 -102 203 -257 223 -334 26 -105
45 -269 45 -390 0 -503 -250 -859 -695 -988 -70 -20 -110 -24 -247 -27 l-163
-3 -95 38 c-204 83 -347 175 -465 299 -176 184 -252 355 -262 594 -10 214 23
358 133 579 79 161 118 212 221 295 144 116 316 192 476 210 80 9 252 4 367
-11z"/>
<path d="M1907 2973 c-4 -3 -7 -60 -7 -125 l0 -118 55 0 c52 0 55 1 55 25 0
21 -5 25 -31 25 -27 0 -30 3 -27 28 2 19 9 28 26 30 14 2 22 10 22 22 0 12 -8
20 -22 22 -15 2 -24 11 -26 26 -3 19 1 22 27 22 26 0 31 4 31 25 0 23 -3 25
-48 25 -27 0 -52 -3 -55 -7z"/>
<path d="M1710 2953 c-14 -3 -28 -8 -33 -12 -6 -6 38 -229 48 -239 10 -11 87
23 106 46 18 23 20 36 16 83 -6 67 -27 104 -69 118 -17 6 -34 10 -37 10 -3 -1
-17 -4 -31 -6z m57 -51 c16 -10 33 -57 33 -91 0 -27 -24 -60 -36 -48 -6 6 -33
114 -34 135 0 13 19 16 37 4z"/>
<path d="M2078 2867 c-45 -151 -44 -149 -17 -145 19 2 27 14 39 55 9 29 18 55
21 58 3 3 9 -27 12 -66 7 -80 5 -76 32 -81 17 -3 24 12 53 111 22 76 30 117
23 124 -19 19 -39 -2 -52 -52 -7 -28 -16 -51 -21 -51 -4 0 -8 29 -8 64 0 64
-7 76 -43 76 -7 0 -24 -42 -39 -93z"/>
<path d="M1537 2886 c-9 -7 -17 -16 -17 -19 0 -4 21 -40 46 -82 44 -73 50
-105 21 -105 -18 0 -36 21 -81 98 -40 66 -46 71 -66 47 -10 -12 -3 -30 42
-102 49 -81 56 -88 89 -91 42 -4 89 33 89 70 0 16 -82 170 -104 195 0 1 -9 -4
-19 -11z"/>
<path d="M2317 2873 c-11 -11 -8 -41 5 -45 8 -3 -4 -33 -35 -88 -26 -45 -47
-86 -47 -91 0 -8 39 -24 44 -17 2 1 22 38 46 81 29 54 47 77 59 75 20 -3 41 9
41 25 0 7 -22 24 -49 40 -54 30 -55 30 -64 20z"/>
<path d="M1315 2720 c-36 -37 -38 -41 -23 -57 13 -12 20 -14 31 -5 10 9 28 -3
82 -58 65 -66 70 -69 87 -53 18 16 16 20 -46 82 -54 55 -65 71 -63 96 3 44
-22 42 -68 -5z"/>
<path d="M2439 2734 c-20 -21 -24 -35 -22 -75 3 -56 -15 -73 -46 -45 -16 15
-20 15 -31 1 -16 -19 -8 -40 25 -61 21 -14 30 -14 55 -4 40 16 50 37 50 99 0
57 13 71 41 45 17 -16 22 -16 29 -4 15 23 12 38 -12 54 -32 23 -61 20 -89 -10z"/>
<path d="M1791 2654 c-97 -26 -189 -83 -282 -174 -48 -47 -96 -103 -107 -126
-59 -117 -87 -343 -58 -468 42 -178 181 -337 386 -441 53 -28 59 -28 195 -26
l140 3 85 44 c293 152 434 438 360 728 -31 123 -90 225 -175 304 -78 73 -185
136 -269 158 -66 18 -206 17 -275 -2z m182 -262 l-6 -119 39 -15 c21 -9 83
-24 137 -34 53 -10 97 -21 97 -25 0 -18 -76 -68 -185 -120 l-121 -58 -27 -123
c-15 -68 -29 -143 -32 -168 -14 -109 -14 -110 -41 -110 -22 0 -31 12 -74 103
-26 56 -55 118 -63 138 l-15 36 -104 -20 c-151 -29 -153 -26 -63 89 85 108 82
86 33 254 -16 58 -32 113 -35 123 -6 22 8 22 136 -4 95 -20 106 -20 136 -6 17
8 53 44 79 79 70 94 74 98 95 98 19 0 20 -5 14 -118z m404 -130 c75 -289 41
-446 -132 -610 -115 -109 -159 -136 -264 -161 -75 -18 -97 -20 -131 -11 -22 6
-40 12 -40 15 0 20 21 40 64 62 284 143 393 311 426 658 5 61 10 116 10 123 0
8 9 12 23 10 19 -3 25 -16 44 -86z"/>
<path d="M2568 2612 c-28 -13 -35 -21 -29 -31 8 -12 17 -12 58 -1 59 16 59 16
43 35 -16 19 -26 19 -72 -3z"/>
<path d="M1206 2588 c-23 -32 -20 -61 9 -88 22 -20 30 -22 85 -16 54 6 60 5
60 -12 0 -10 -5 -23 -11 -29 -15 -15 -3 -33 20 -33 43 0 62 64 30 104 -22 27
-25 28 -86 22 -52 -5 -64 -4 -69 9 -4 8 0 22 7 31 10 13 10 17 -2 25 -21 13
-26 11 -43 -13z"/>
<path d="M2663 2415 c-11 -8 -28 -33 -37 -55 -18 -46 -48 -52 -54 -12 -4 26
-11 27 -37 8 -17 -12 -17 -17 -5 -46 29 -69 105 -59 143 18 26 55 43 63 57 28
12 -33 40 -24 40 14 0 52 -60 78 -107 45z"/>
<path d="M1070 2316 c0 -8 -2 -21 -5 -29 -4 -10 12 -22 52 -41 l58 -26 -61 5
-61 6 -7 -32 c-3 -18 -5 -33 -4 -34 13 -10 223 -73 229 -69 5 3 9 13 9 23 0
13 -16 23 -60 36 -34 10 -63 21 -65 24 -2 3 30 5 71 3 63 -3 74 -1 74 13 0 9
-19 23 -47 36 -88 36 -92 40 -38 33 28 -3 60 -8 72 -11 15 -3 23 1 28 17 4 12
5 24 2 26 -5 6 -190 33 -224 34 -13 0 -23 -6 -23 -14z"/>
<path d="M2667 2246 c-56 -21 -87 -53 -87 -91 0 -36 30 -69 73 -79 42 -10 132
19 156 50 63 79 -34 160 -142 120z m98 -50 c41 -30 -14 -70 -89 -64 -33 2 -42
7 -44 24 -3 21 20 36 73 47 35 8 41 7 60 -7z"/>
<path d="M1030 2035 l0 -25 125 0 125 0 0 25 0 25 -125 0 -125 0 0 -25z"/>
<path d="M2654 2020 c-32 -13 -64 -59 -64 -91 0 -24 4 -29 25 -29 20 0 25 5
25 25 0 19 9 29 34 42 31 14 39 15 73 2 32 -12 39 -20 41 -47 3 -28 7 -33 25
-30 28 4 35 50 12 84 -29 45 -115 67 -171 44z"/>
<path d="M1248 1983 c-12 -3 -18 -14 -18 -32 0 -27 -2 -28 -65 -35 -112 -11
-126 -16 -123 -40 3 -24 24 -25 166 -5 l83 11 -7 47 c-7 52 -12 59 -36 54z"/>
<path d="M2574 1848 c-3 -11 -2 -24 3 -28 8 -8 200 -60 220 -60 12 0 24 38 14
44 -4 3 -57 18 -118 34 -111 30 -112 30 -119 10z"/>
<path d="M1212 1824 c-12 -8 -29 -30 -38 -47 -9 -18 -22 -35 -28 -39 -13 -9
-36 10 -36 29 0 24 -35 10 -38 -16 -4 -28 33 -71 63 -71 31 0 63 26 85 71 11
21 24 39 29 39 16 0 33 -30 27 -46 -5 -12 -2 -15 10 -10 8 3 20 6 25 6 17 0 9
56 -11 78 -24 26 -57 28 -88 6z"/>
<path d="M2549 1752 c-18 -45 -16 -76 4 -80 12 -2 20 3 24 17 6 22 28 27 52
12 10 -6 10 -13 2 -28 -5 -11 -7 -23 -4 -27 12 -12 41 -6 47 10 9 24 52 14 48
-11 -2 -11 -5 -24 -5 -30 -1 -5 8 -11 19 -13 18 -2 25 5 37 42 17 51 18 50
-55 75 -29 10 -77 28 -106 40 l-53 21 -10 -28z"/>
<path d="M1274 1678 c-162 -91 -153 -83 -131 -111 11 -15 19 -13 87 28 80 48
104 54 114 30 6 -16 -28 -44 -106 -88 -57 -33 -61 -39 -44 -62 11 -16 19 -13
103 39 50 31 93 64 95 74 7 27 -15 76 -43 96 -29 20 -26 20 -75 -6z"/>
<path d="M2482 1618 c-22 -22 -12 -33 68 -81 65 -39 80 -52 75 -67 -4 -13 1
-22 14 -29 17 -10 23 -5 50 42 28 47 29 53 14 64 -13 10 -20 10 -32 -2 -14
-12 -22 -11 -61 14 -117 71 -116 71 -128 59z"/>
<path d="M1348 1466 l-77 -94 24 -22 24 -23 58 44 c32 23 53 36 47 28 -6 -7
-25 -33 -43 -57 l-34 -43 23 -24 23 -24 74 62 c41 34 84 69 96 79 18 14 19 19
8 32 -7 9 -17 16 -21 16 -5 0 -34 -23 -64 -51 -31 -28 -56 -48 -56 -44 0 3 18
32 40 62 66 93 51 113 -36 48 -32 -24 -61 -42 -63 -39 -2 2 17 26 42 53 26 28
47 54 47 59 0 9 -21 32 -29 32 -4 0 -41 -43 -83 -94z"/>
<path d="M2391 1504 c-12 -14 -8 -21 25 -55 25 -26 48 -64 64 -110 25 -68 27
-69 44 -51 16 18 16 23 2 56 -17 42 -18 41 28 19 29 -13 38 -14 51 -3 23 19
19 25 -42 50 -32 12 -78 42 -103 66 -25 24 -48 44 -50 44 -3 -1 -11 -8 -19
-16z"/>
<path d="M1868 1294 c-36 -19 -48 -43 -48 -94 0 -33 6 -48 30 -72 28 -27 36
-30 73 -25 28 4 49 14 64 32 41 47 25 133 -28 161 -35 18 -57 17 -91 -2z"/>
<path d="M877 3130 c-99 -86 -270 -408 -323 -604 l-13 -50 35 -43 c20 -24 41
-42 48 -40 81 26 313 616 294 748 -3 23 -4 22 -41 -11z"/>
<path d="M2964 3028 c16 -142 60 -288 148 -488 58 -132 65 -137 125 -100 l32
19 -20 73 c-56 200 -137 397 -198 478 -30 40 -72 79 -85 80 -5 0 -6 -28 -2
-62z"/>
<path d="M400 2383 c0 -115 15 -239 41 -333 23 -83 125 -298 163 -345 42 -52
47 -26 25 145 -34 275 -72 408 -155 545 -61 101 -74 99 -74 -12z"/>
<path d="M3400 2443 c-14 -3 -86 -113 -125 -192 -53 -106 -78 -253 -73 -422
l3 -106 65 31 c62 30 66 34 83 86 35 108 57 248 68 419 6 95 7 177 2 180 -4 4
-15 6 -23 4z"/>
<path d="M3290 1628 c-73 -36 -175 -133 -344 -328 -60 -69 -175 -196 -257
-282 -82 -87 -149 -162 -149 -168 0 -5 30 -24 68 -41 74 -34 113 -34 203 1
106 40 162 118 204 284 l24 95 81 78 c90 85 185 205 218 274 24 52 39 119 25
119 -6 0 -38 -14 -73 -32z"/>
<path d="M470 1611 c0 -40 84 -180 180 -301 120 -151 123 -156 144 -249 21
-92 52 -153 110 -217 l45 -51 103 19 c198 38 206 52 100 187 -38 47 -106 135
-152 194 -156 204 -312 352 -422 401 -81 36 -108 40 -108 17z"/>
<path d="M1665 886 c-38 -16 -55 -53 -55 -117 0 -124 82 -189 151 -120 24 25
29 37 29 81 l0 51 -47 -3 c-40 -3 -48 -6 -48 -23 0 -13 8 -21 23 -23 25 -4 30
-33 8 -51 -30 -25 -66 26 -66 97 0 53 47 84 68 46 7 -13 13 -14 31 -5 28 16
27 24 -10 55 -35 29 -42 30 -84 12z"/>
<path d="M1834 876 c-3 -13 -4 -73 -2 -133 l3 -108 58 -3 58 -3 -3 28 c-2 22
-9 29 -30 31 -24 3 -28 8 -28 33 0 24 4 29 25 29 20 0 25 5 25 25 0 20 -5 25
-25 25 -20 0 -25 5 -25 25 0 21 5 25 30 25 25 0 30 4 30 25 0 24 -3 25 -55 25
-49 0 -55 -2 -61 -24z"/>
<path d="M1995 803 c-3 -54 -8 -115 -11 -135 -6 -37 -5 -38 25 -38 28 0 30 3
33 43 l3 42 16 -45 c13 -36 21 -46 42 -48 32 -4 32 -4 10 64 -16 51 -15 53 5
79 43 54 23 110 -43 125 -75 18 -72 20 -80 -87z m92 31 c7 -18 -7 -46 -25 -52
-8 -2 -12 9 -12 32 0 38 25 51 37 20z"/>
<path d="M2185 848 c-16 -97 -32 -224 -28 -230 2 -5 15 -8 28 -8 21 0 24 6 35
83 6 45 12 105 13 132 2 45 0 50 -20 53 -18 3 -23 -3 -28 -30z"/>
<path d="M1496 828 c17 -119 34 -221 37 -224 1 -2 13 -1 25 3 26 6 26 11 7
139 -8 54 -15 105 -15 112 0 7 -13 12 -30 12 -30 0 -30 -1 -24 -42z"/>
<path d="M1387 843 c-3 -5 1 -35 8 -68 8 -32 13 -61 10 -63 -2 -2 -22 24 -44
57 -42 61 -54 69 -80 52 -11 -7 -9 -30 14 -135 16 -69 33 -126 39 -126 33 1
37 15 22 86 -8 38 -14 70 -12 71 1 1 22 -28 46 -65 34 -51 50 -66 65 -64 11 2
22 6 24 8 2 2 -7 59 -20 126 -22 109 -27 123 -46 126 -12 2 -23 -1 -26 -5z"/>
<path d="M2316 798 c-13 -29 -38 -84 -55 -122 -17 -38 -31 -70 -31 -71 0 -2
12 -5 26 -8 20 -3 27 1 34 18 12 31 60 23 60 -10 0 -21 17 -35 41 -35 6 0 8
56 7 138 l-3 137 -28 3 c-25 3 -30 -2 -51 -50z m29 -116 c-4 -10 -9 -12 -15
-6 -7 7 -6 22 2 45 l13 34 3 -28 c2 -16 1 -36 -3 -45z"/>
</g>
</svg>
