<svg width="20" height="21" viewBox="0 0 20 21" fill="none" xmlns="http://www.w3.org/2000/svg">
<path d="M6.81053 2.3386H4.54035C2.03278 2.3386 0 4.37138 0 6.87895V15.9596C0 18.4672 2.03278 20.5 4.54035 20.5H13.6211C16.1286 20.5 18.1614 18.4672 18.1614 15.9596V13.6895H16.9506V15.9596C16.9506 17.7985 15.4599 19.2892 13.6211 19.2892H4.54035C2.70147 19.2892 1.21076 17.7985 1.21076 15.9596V6.87895C1.21076 5.04006 2.70147 3.54936 4.54035 3.54936H6.81053V2.3386Z" fill="#800000"/>
<path d="M10.4354 9.49546C10.2322 9.29229 10.2153 8.97341 10.3846 8.75095L10.4354 8.69283L17.4903 1.63859L12.4035 1.649C12.09 1.64967 11.8354 1.39612 11.8347 1.08268C11.8341 0.797728 12.0436 0.561373 12.3172 0.520247L12.401 0.513913L18.8617 0.500001C18.903 0.499912 18.9433 0.50424 18.9821 0.512538C18.9935 0.515319 19.0051 0.518187 19.0167 0.521427C19.0269 0.523945 19.0369 0.527075 19.0468 0.530472C19.0611 0.535632 19.0755 0.541217 19.0897 0.547413C19.1009 0.552024 19.1113 0.556958 19.1215 0.562192C19.134 0.56881 19.1471 0.57614 19.1599 0.584028C19.169 0.589423 19.1774 0.594929 19.1856 0.600648C19.1978 0.609261 19.2101 0.618501 19.2221 0.628305C19.2313 0.635672 19.2401 0.643336 19.2486 0.65126C19.2537 0.656173 19.2591 0.661299 19.2643 0.666551L19.2796 0.682298C19.2872 0.690482 19.2945 0.698889 19.3016 0.707509L19.2643 0.666551C19.2896 0.691875 19.3121 0.718998 19.3316 0.747508C19.3363 0.754286 19.3409 0.761416 19.3454 0.768654C19.3547 0.783586 19.363 0.798514 19.3706 0.813713C19.3744 0.821241 19.3783 0.829464 19.382 0.837792C19.3894 0.854557 19.3958 0.871166 19.4014 0.887986C19.4041 0.895864 19.4067 0.904301 19.4091 0.91282C19.413 0.926749 19.4163 0.940386 19.4191 0.954105C19.4211 0.963803 19.4229 0.974154 19.4244 0.984597L19.4256 0.992696C19.4289 1.01763 19.4305 1.04275 19.4305 1.06786L19.4304 1.06872L19.417 7.52988C19.4164 7.84332 19.1618 8.09689 18.8483 8.09624C18.5634 8.09565 18.3279 7.88517 18.2879 7.61141L18.282 7.52753L18.2918 2.44229L11.238 9.49546C11.0164 9.7171 10.657 9.7171 10.4354 9.49546Z" fill="#800000"/>
</svg>
